<mxfile host="app.diagrams.net" modified="2023-05-31T12:07:32.504Z" agent="Mozilla/5.0 (Windows NT 10.0; Win64; x64) AppleWebKit/537.36 (KHTML, like Gecko) Chrome/113.0.0.0 Safari/537.36 Edg/113.0.1774.50" etag="0bEnihveIaZVnaYu-zUG" version="21.3.4" type="google">
  <diagram name="Sida-1" id="GH-PixYEKGvPigYJohsv">
    <mxGraphModel grid="1" page="1" gridSize="10" guides="1" tooltips="1" connect="1" arrows="1" fold="1" pageScale="1" pageWidth="1169" pageHeight="827" math="0" shadow="0">
      <root>
        <mxCell id="0" />
        <mxCell id="1" parent="0" />
        <mxCell id="82s24ZEPmLGl3aNoXof6-21" style="edgeStyle=orthogonalEdgeStyle;rounded=0;orthogonalLoop=1;jettySize=auto;html=1;entryX=0.5;entryY=0;entryDx=0;entryDy=0;" edge="1" parent="1" source="82s24ZEPmLGl3aNoXof6-4" target="82s24ZEPmLGl3aNoXof6-5">
          <mxGeometry relative="1" as="geometry">
            <Array as="points">
              <mxPoint x="420" y="400" />
              <mxPoint x="60" y="400" />
            </Array>
          </mxGeometry>
        </mxCell>
        <mxCell id="82s24ZEPmLGl3aNoXof6-22" style="edgeStyle=orthogonalEdgeStyle;rounded=0;orthogonalLoop=1;jettySize=auto;html=1;entryX=0.5;entryY=0;entryDx=0;entryDy=0;" edge="1" parent="1" source="82s24ZEPmLGl3aNoXof6-4" target="82s24ZEPmLGl3aNoXof6-7">
          <mxGeometry relative="1" as="geometry">
            <Array as="points">
              <mxPoint x="420" y="400" />
              <mxPoint x="190" y="400" />
            </Array>
          </mxGeometry>
        </mxCell>
        <mxCell id="82s24ZEPmLGl3aNoXof6-23" style="edgeStyle=orthogonalEdgeStyle;rounded=0;orthogonalLoop=1;jettySize=auto;html=1;entryX=0.5;entryY=0;entryDx=0;entryDy=0;" edge="1" parent="1" source="82s24ZEPmLGl3aNoXof6-4" target="82s24ZEPmLGl3aNoXof6-8">
          <mxGeometry relative="1" as="geometry">
            <Array as="points">
              <mxPoint x="420" y="400" />
              <mxPoint x="320" y="400" />
            </Array>
          </mxGeometry>
        </mxCell>
        <mxCell id="82s24ZEPmLGl3aNoXof6-24" style="edgeStyle=orthogonalEdgeStyle;rounded=0;orthogonalLoop=1;jettySize=auto;html=1;entryX=0.5;entryY=0;entryDx=0;entryDy=0;" edge="1" parent="1" source="82s24ZEPmLGl3aNoXof6-4" target="82s24ZEPmLGl3aNoXof6-11">
          <mxGeometry relative="1" as="geometry">
            <Array as="points">
              <mxPoint x="420" y="400" />
              <mxPoint x="450" y="400" />
            </Array>
          </mxGeometry>
        </mxCell>
        <mxCell id="82s24ZEPmLGl3aNoXof6-25" style="edgeStyle=orthogonalEdgeStyle;rounded=0;orthogonalLoop=1;jettySize=auto;html=1;entryX=0.5;entryY=0;entryDx=0;entryDy=0;" edge="1" parent="1" source="82s24ZEPmLGl3aNoXof6-4" target="82s24ZEPmLGl3aNoXof6-12">
          <mxGeometry relative="1" as="geometry">
            <Array as="points">
              <mxPoint x="420" y="400" />
              <mxPoint x="580" y="400" />
            </Array>
          </mxGeometry>
        </mxCell>
        <mxCell id="82s24ZEPmLGl3aNoXof6-26" style="edgeStyle=orthogonalEdgeStyle;rounded=0;orthogonalLoop=1;jettySize=auto;html=1;entryX=0.5;entryY=0;entryDx=0;entryDy=0;" edge="1" parent="1" source="82s24ZEPmLGl3aNoXof6-4" target="82s24ZEPmLGl3aNoXof6-13">
          <mxGeometry relative="1" as="geometry">
            <Array as="points">
              <mxPoint x="420" y="400" />
              <mxPoint x="710" y="400" />
            </Array>
          </mxGeometry>
        </mxCell>
        <mxCell id="82s24ZEPmLGl3aNoXof6-27" style="edgeStyle=orthogonalEdgeStyle;rounded=0;orthogonalLoop=1;jettySize=auto;html=1;entryX=0.5;entryY=0;entryDx=0;entryDy=0;" edge="1" parent="1" source="82s24ZEPmLGl3aNoXof6-4" target="82s24ZEPmLGl3aNoXof6-15">
          <mxGeometry relative="1" as="geometry">
            <Array as="points">
              <mxPoint x="420" y="400" />
              <mxPoint x="970" y="400" />
            </Array>
          </mxGeometry>
        </mxCell>
        <mxCell id="82s24ZEPmLGl3aNoXof6-28" style="edgeStyle=orthogonalEdgeStyle;rounded=0;orthogonalLoop=1;jettySize=auto;html=1;entryX=0.5;entryY=0;entryDx=0;entryDy=0;" edge="1" parent="1" source="82s24ZEPmLGl3aNoXof6-4" target="82s24ZEPmLGl3aNoXof6-16">
          <mxGeometry relative="1" as="geometry">
            <Array as="points">
              <mxPoint x="420" y="400" />
              <mxPoint x="1100" y="400" />
            </Array>
          </mxGeometry>
        </mxCell>
        <mxCell id="82s24ZEPmLGl3aNoXof6-30" style="edgeStyle=orthogonalEdgeStyle;rounded=0;orthogonalLoop=1;jettySize=auto;html=1;entryX=0.5;entryY=0;entryDx=0;entryDy=0;" edge="1" parent="1" source="82s24ZEPmLGl3aNoXof6-4" target="82s24ZEPmLGl3aNoXof6-14">
          <mxGeometry relative="1" as="geometry">
            <Array as="points">
              <mxPoint x="420" y="400" />
              <mxPoint x="840" y="400" />
            </Array>
          </mxGeometry>
        </mxCell>
        <mxCell id="82s24ZEPmLGl3aNoXof6-4" value="/api" style="rounded=0;whiteSpace=wrap;html=1;fillColor=#f8cecc;strokeColor=#b85450;gradientColor=#ea6b66;" vertex="1" parent="1">
          <mxGeometry x="360" y="270" width="120" height="60" as="geometry" />
        </mxCell>
        <mxCell id="82s24ZEPmLGl3aNoXof6-5" value="/exercises" style="rounded=1;whiteSpace=wrap;html=1;fillColor=#f5f5f5;gradientColor=#b3b3b3;strokeColor=#666666;" vertex="1" parent="1">
          <mxGeometry y="510" width="120" height="60" as="geometry" />
        </mxCell>
        <mxCell id="82s24ZEPmLGl3aNoXof6-29" style="edgeStyle=orthogonalEdgeStyle;rounded=0;orthogonalLoop=1;jettySize=auto;html=1;entryX=0.5;entryY=0;entryDx=0;entryDy=0;fillColor=#f5f5f5;gradientColor=#b3b3b3;strokeColor=#666666;" edge="1" parent="1" source="82s24ZEPmLGl3aNoXof6-7" target="82s24ZEPmLGl3aNoXof6-18">
          <mxGeometry relative="1" as="geometry" />
        </mxCell>
        <mxCell id="82s24ZEPmLGl3aNoXof6-7" value="/workouts" style="rounded=1;whiteSpace=wrap;html=1;fillColor=#f5f5f5;gradientColor=#b3b3b3;strokeColor=#666666;" vertex="1" parent="1">
          <mxGeometry x="130" y="510" width="120" height="60" as="geometry" />
        </mxCell>
        <mxCell id="82s24ZEPmLGl3aNoXof6-8" value="/techniques" style="rounded=1;whiteSpace=wrap;html=1;fillColor=#f5f5f5;gradientColor=#b3b3b3;strokeColor=#666666;" vertex="1" parent="1">
          <mxGeometry x="260" y="510" width="120" height="60" as="geometry" />
        </mxCell>
        <mxCell id="82s24ZEPmLGl3aNoXof6-10" value="/user" style="rounded=0;whiteSpace=wrap;html=1;fillColor=#f5f5f5;gradientColor=#b3b3b3;strokeColor=#666666;" vertex="1" parent="1">
          <mxGeometry x="780" y="250" width="120" height="60" as="geometry" />
        </mxCell>
        <mxCell id="82s24ZEPmLGl3aNoXof6-11" value="/tags" style="rounded=1;whiteSpace=wrap;html=1;fillColor=#f5f5f5;gradientColor=#b3b3b3;strokeColor=#666666;" vertex="1" parent="1">
          <mxGeometry x="390" y="510" width="120" height="60" as="geometry" />
        </mxCell>
        <mxCell id="82s24ZEPmLGl3aNoXof6-12" value="/plan" style="rounded=1;whiteSpace=wrap;html=1;fillColor=#f5f5f5;gradientColor=#b3b3b3;strokeColor=#666666;" vertex="1" parent="1">
          <mxGeometry x="520" y="510" width="120" height="60" as="geometry" />
        </mxCell>
        <mxCell id="82s24ZEPmLGl3aNoXof6-13" value="/session" style="rounded=1;whiteSpace=wrap;html=1;fillColor=#f5f5f5;gradientColor=#b3b3b3;strokeColor=#666666;" vertex="1" parent="1">
          <mxGeometry x="650" y="510" width="120" height="60" as="geometry" />
        </mxCell>
        <mxCell id="82s24ZEPmLGl3aNoXof6-14" value="/comment" style="rounded=1;whiteSpace=wrap;html=1;fillColor=#f5f5f5;gradientColor=#b3b3b3;strokeColor=#666666;" vertex="1" parent="1">
          <mxGeometry x="780" y="510" width="120" height="60" as="geometry" />
        </mxCell>
        <mxCell id="82s24ZEPmLGl3aNoXof6-15" value="/media" style="rounded=1;whiteSpace=wrap;html=1;fillColor=#f5f5f5;gradientColor=#b3b3b3;strokeColor=#666666;" vertex="1" parent="1">
          <mxGeometry x="910" y="510" width="120" height="60" as="geometry" />
        </mxCell>
        <mxCell id="82s24ZEPmLGl3aNoXof6-16" value="/errorlogs" style="rounded=1;whiteSpace=wrap;html=1;fillColor=#f5f5f5;gradientColor=#b3b3b3;strokeColor=#666666;" vertex="1" parent="1">
          <mxGeometry x="1040" y="510" width="120" height="60" as="geometry" />
        </mxCell>
        <mxCell id="82s24ZEPmLGl3aNoXof6-19" style="edgeStyle=orthogonalEdgeStyle;rounded=0;orthogonalLoop=1;jettySize=auto;html=1;entryX=0.5;entryY=0;entryDx=0;entryDy=0;" edge="1" parent="1" source="82s24ZEPmLGl3aNoXof6-17" target="82s24ZEPmLGl3aNoXof6-4">
          <mxGeometry relative="1" as="geometry">
            <mxPoint x="490" y="240" as="targetPoint" />
            <Array as="points">
              <mxPoint x="584" y="200" />
              <mxPoint x="420" y="200" />
            </Array>
          </mxGeometry>
        </mxCell>
        <mxCell id="82s24ZEPmLGl3aNoXof6-20" style="edgeStyle=orthogonalEdgeStyle;rounded=0;orthogonalLoop=1;jettySize=auto;html=1;entryX=0.5;entryY=0;entryDx=0;entryDy=0;" edge="1" parent="1" source="82s24ZEPmLGl3aNoXof6-17" target="82s24ZEPmLGl3aNoXof6-10">
          <mxGeometry relative="1" as="geometry">
            <Array as="points">
              <mxPoint x="584" y="200" />
              <mxPoint x="840" y="200" />
            </Array>
          </mxGeometry>
        </mxCell>
        <mxCell id="82s24ZEPmLGl3aNoXof6-17" value="&lt;font style=&quot;font-size: 41px;&quot;&gt;API ENDPOINTS&lt;/font&gt;" style="text;html=1;align=center;verticalAlign=middle;resizable=0;points=[];autosize=1;strokeColor=none;fillColor=none;" vertex="1" parent="1">
          <mxGeometry x="414" y="80" width="340" height="60" as="geometry" />
        </mxCell>
        <mxCell id="82s24ZEPmLGl3aNoXof6-18" value="/activities" style="rounded=1;whiteSpace=wrap;html=1;fillColor=#f5f5f5;gradientColor=#b3b3b3;strokeColor=#666666;" vertex="1" parent="1">
          <mxGeometry x="130" y="670" width="120" height="60" as="geometry" />
        </mxCell>
      </root>
    </mxGraphModel>
  </diagram>
</mxfile>
